<svg width="61" height="64" viewBox="0 0 61 64" fill="none" xmlns="http://www.w3.org/2000/svg">
<path d="M10.2695 33.5494C10.2695 33.8976 10.5354 34.1588 10.8617 34.1588H14.6325C14.9709 34.1588 15.2247 33.8852 15.2247 33.5494C15.2126 33.2136 14.9467 32.9524 14.6325 32.9399H10.8617C10.5233 32.9399 10.2695 33.2136 10.2695 33.5494Z" fill="white"/>
<path d="M22.0649 19.8595C22.1737 19.8595 22.2825 19.8222 22.3791 19.7601C22.6692 19.5735 22.7417 19.2129 22.5846 18.9145L20.6267 15.6069C20.4575 15.3084 20.0949 15.2338 19.8049 15.3955C19.5148 15.5696 19.4423 15.9426 19.5994 16.241L21.5694 19.5611C21.6661 19.7476 21.8595 19.8595 22.0649 19.8595Z" fill="white"/>
<path d="M13.9557 44.8015C14.0644 44.8015 14.1732 44.7642 14.2699 44.7021L17.4847 42.6878C17.5089 42.6754 17.5451 42.6629 17.5693 42.6381C17.8473 42.4391 17.8956 42.0661 17.7022 41.7801C17.5089 41.4942 17.1342 41.4444 16.8683 41.6434L13.6535 43.6576C13.3635 43.8441 13.2909 44.2047 13.4481 44.5031C13.5447 44.6896 13.7502 44.8015 13.9557 44.8015Z" fill="white"/>
<path d="M16.1671 26.0885C16.2517 26.1382 16.3484 26.1755 16.445 26.1631C16.6626 26.1631 16.856 26.0388 16.9647 25.8398C16.9647 25.8274 16.9768 25.815 16.9768 25.8025C17.1218 25.5165 17.0131 25.1684 16.723 25.0192L13.4236 23.1541C13.3874 23.1293 13.339 23.1044 13.3028 23.092C13.0006 22.9552 12.6622 23.1044 12.5293 23.4277C12.3963 23.7385 12.5414 24.0867 12.8556 24.2234L16.1671 26.0885Z" fill="white"/>
<path d="M22.7901 47.6488L20.9893 51.0435C20.9893 51.0559 20.9773 51.0559 20.9773 51.0684C20.8201 51.3544 20.9289 51.715 21.219 51.8766C21.3036 51.9264 21.4123 51.9512 21.509 51.9512C21.7266 51.9512 21.9199 51.8269 22.0287 51.6279L23.8416 48.2332C23.9987 47.9348 23.8899 47.5618 23.5999 47.4001C23.3098 47.2509 22.9472 47.3628 22.7901 47.6488Z" fill="white"/>
<path d="M54.4427 50.8938C56.7269 47.8725 58.431 44.018 59.4825 39.4672C60.9569 33.0887 60.7515 26.7973 60.2076 24.6835C59.7121 22.7812 57.2829 20.2696 56.171 19.2003C56.2193 19.0013 56.2193 18.79 56.171 18.5786C56.0743 18.131 55.8084 17.7207 55.4217 17.472L54.0197 16.5146C52.1827 15.2836 49.7535 15.6815 48.6053 17.4222L43.2634 25.5415C42.7437 26.3497 42.5504 27.3444 42.7437 28.2893C42.9854 29.3835 43.626 30.3285 44.5445 30.9377L45.608 31.6464C45.9706 31.8951 46.3936 32.0194 46.8166 32.0194C47.433 32.0443 48.0131 31.7335 48.3757 31.2237L48.557 30.9501C49.3184 31.5345 50.0556 32.2432 50.1523 32.6411C50.4786 33.8721 50.3215 37.0054 49.7776 38.0001C48.2186 40.7231 44.7137 46.0571 42.8283 48.5687C42.6108 48.8423 42.1999 49.1656 41.7044 49.5013L39.964 46.5918C39.7948 46.2934 39.4322 46.2188 39.1422 46.3804C38.8521 46.5545 38.7796 46.9275 38.9367 47.2259L40.6529 50.0981C39.6619 50.6203 38.5983 51.0555 37.994 51.1425C37.7161 51.1798 36.9063 50.8814 35.6857 50.1851C35.8428 49.8743 35.8911 49.5261 35.8186 49.1904C35.7219 48.7428 35.456 48.3325 35.0693 48.0838L33.6673 47.1264C31.8303 45.8955 29.4132 46.3058 28.265 48.0341L23.0561 55.9419C11.2 52.0875 4.15398 39.4548 6.96996 26.9465C8.74656 19.0013 14.2456 12.4736 21.642 9.53926L22.5243 11.9763C22.5968 12.1876 22.7902 12.3493 22.9956 12.3617C23.2253 12.3866 23.4307 12.2871 23.5637 12.1006L29.4132 3.29753C29.5219 3.12345 29.5461 2.92451 29.4736 2.72557C29.4011 2.53907 29.244 2.38986 29.0627 2.35256L19.2732 0.0150215C19.0557 -0.0347135 18.8381 0.0398889 18.6931 0.226395C18.5481 0.400467 18.5118 0.636708 18.5964 0.848081L19.5875 3.35969C10.1243 7.04008 3.06627 15.3458 0.782063 25.4793C-2.9766 42.24 7.17542 58.9509 23.4549 62.8178C23.8658 62.9048 24.2888 62.9421 24.6997 62.9297C25.3161 62.9297 25.9929 62.8675 26.4642 62.681C27.0323 62.681 27.564 62.4199 27.9266 61.9599C28.8089 62.3453 30.7909 63.1784 32.5675 63.5265H32.6159C33.0751 63.6135 33.5465 63.6633 34.0057 63.6757C34.1991 63.6757 34.3804 63.6757 34.5738 63.6509C34.8638 63.6135 35.4681 63.5141 36.3504 63.2778H47.9406C48.5932 63.2778 49.2338 63.0292 49.7293 62.5816C49.9227 62.4075 50.0556 62.1961 50.116 61.9474L50.6599 60.0575C50.7082 59.8834 50.8291 59.7342 50.9983 59.6845C51.3488 59.5602 51.7234 59.6845 51.9531 59.9829L52.8595 62.0593L52.8837 62.1091C53.3792 62.8551 54.201 63.3027 55.0833 63.2903H58.5277V62.0593H55.0833C54.624 62.0593 54.1768 61.8231 53.8989 61.4501L53.0045 59.3736L52.9683 59.3239C52.4607 58.553 51.5059 58.2173 50.6357 58.5157C50.1039 58.7022 49.6809 59.1498 49.5359 59.7094L48.9921 61.5869L48.9558 61.6739C48.6778 61.9226 48.3273 62.0469 47.9527 62.0469L39.964 62.0593C40.2903 61.9226 40.6287 61.7734 40.9792 61.6242C44.6654 59.958 50.0193 56.7377 54.4427 50.8938ZM46.2486 30.6517L45.185 29.943C44.5324 29.5203 44.0852 28.824 43.904 28.0655C43.7831 27.4314 43.904 26.7848 44.2544 26.2378L49.5963 18.1185C50.0556 17.4098 50.8533 17.0368 51.6993 17.0368C52.2915 17.0368 52.8595 17.2233 53.3671 17.5466L54.7811 18.4915C54.902 18.5661 54.9745 18.6905 55.0107 18.8273C55.0228 18.8894 55.0228 18.9516 54.9866 19.0138L47.3726 30.5771C47.155 30.888 46.6474 30.9253 46.2486 30.6517ZM29.2198 48.7552C29.6911 48.0465 30.4767 47.6735 31.3227 47.6735C31.9149 47.6735 32.4829 47.86 32.9905 48.1833L34.4046 49.1283C34.5254 49.2029 34.5979 49.3272 34.6342 49.464C34.6584 49.5261 34.6463 49.6007 34.61 49.6505L27.2498 60.8284L26.996 61.2014C26.9356 61.3009 26.851 61.363 26.7422 61.4128C26.7301 61.4003 26.706 61.4003 26.6939 61.3879C26.0775 61.1765 25.0865 60.7911 24.8448 60.5922C23.9021 59.8959 23.4307 58.8639 23.5153 57.9189C23.5516 57.5832 23.6604 57.2848 23.8296 56.9864C23.8416 56.9491 23.8658 56.9118 23.89 56.8745L29.2198 48.7552ZM1.95438 25.7528C4.16607 15.7934 11.1879 7.69907 20.5664 4.29222C20.7235 4.24249 20.8565 4.11815 20.9169 3.95651C20.9894 3.80731 20.9894 3.63324 20.929 3.48403L20.1434 1.4822L27.9508 3.35969L23.2374 10.4469L22.5485 8.55699C22.5485 8.54456 22.5485 8.54456 22.5485 8.54456C22.4397 8.23372 22.1013 8.08451 21.7992 8.18398C13.7501 11.1308 7.73136 18.1061 5.80973 26.6729C2.8729 39.7284 10.1727 52.9205 22.476 57.0485C22.3672 57.3718 22.3188 57.6827 22.3068 58.0059C22.2342 59.3363 22.8869 60.6916 24.0954 61.5496C24.1075 61.562 24.1196 61.5744 24.1438 61.5869L24.2767 61.6739L24.3251 61.7112C24.1196 61.6988 23.9142 61.6739 23.7087 61.6366C8.10602 57.9189 -1.65925 41.8172 1.95438 25.7528ZM34.4287 62.4199C34.0178 62.4821 33.4619 62.4448 32.7972 62.308H32.7367C31.2381 62.0096 29.5219 61.3133 28.6155 60.9279L35.0089 51.2171C36.4712 52.0626 37.5106 52.4232 38.1391 52.3362C39.4927 52.1372 42.7921 50.5706 43.7468 49.3023C45.6564 46.7658 49.2096 41.3696 50.7807 38.5969C51.5663 37.2167 51.6509 33.698 51.2883 32.3054C51.0587 31.4475 49.9347 30.4652 49.2217 29.9306L55.5788 20.2571C57.0774 21.7243 58.7452 23.6764 59.0716 24.9571C59.5429 26.7475 59.8088 32.753 58.3343 39.1315C57.307 43.5206 55.6996 47.2135 53.5121 50.0981C49.2459 55.7306 44.0732 58.839 40.4958 60.4554C37.2447 61.9474 35.0209 62.3329 34.4287 62.4199Z" fill="white"/>
<path d="M29.4737 45.0624C26.6093 45.0624 23.7209 44.0677 21.3521 42.041C15.9618 37.4281 15.2246 29.1597 19.7205 23.6266C24.2043 18.0812 32.2413 17.3227 37.6194 21.9481C43.0097 26.561 43.7469 34.8294 39.251 40.3624C36.7372 43.4584 33.1236 45.0624 29.4737 45.0624ZM22.1135 41.096C26.9961 45.2738 34.2717 44.5899 38.3446 39.5791C42.4054 34.5559 41.7407 27.0708 36.8701 22.8806C31.9875 18.7029 24.7119 19.3867 20.639 24.3975C16.5661 29.4332 17.2308 36.9183 22.1135 41.096Z" fill="white"/>
<path d="M39.9883 31.8824C39.9883 31.87 39.9883 31.8575 39.9883 31.8451C39.9883 31.8202 39.9883 31.8078 39.9762 31.7829C39.9157 28.7615 38.6347 25.7774 36.2054 23.701C31.7458 19.8839 25.1107 20.5055 21.4004 25.0936C19.6117 27.2944 18.7657 30.0919 19.0195 32.9766C19.2854 35.8612 20.6027 38.4598 22.7661 40.3C24.6636 41.9413 27.0203 42.8117 29.4737 42.8117H29.6308H29.655H29.7033C29.9571 42.8117 30.1988 42.7992 30.4526 42.7743C33.2444 42.5132 35.7824 41.1455 37.5711 38.9199C38.0425 38.3355 38.4534 37.7014 38.7918 37.0424C39.6136 35.4136 40.0124 33.6356 39.9883 31.8824ZM36.6405 38.1241C36.145 38.7334 35.577 39.268 34.9727 39.7405L34.3201 38.6339C34.1509 38.3355 33.7883 38.2609 33.4982 38.4225C33.2082 38.5842 33.1356 38.9696 33.2928 39.268L33.9575 40.3871C32.8577 41.0088 31.6128 41.4066 30.3197 41.5185C30.2955 41.5185 30.2592 41.5185 30.2351 41.5185V40.2503C30.2351 39.9022 29.9692 39.6411 29.6429 39.6411C29.3045 39.6411 29.0507 39.9146 29.0507 40.2503V41.5558C27.8904 41.5061 26.7544 41.2201 25.7029 40.7352L26.3072 39.6037C26.4643 39.3053 26.3556 38.9323 26.0655 38.7707C25.7754 38.6091 25.4129 38.721 25.2558 39.0194L24.6515 40.1633C24.2647 39.9146 23.878 39.6411 23.5275 39.3302C22.9353 38.8204 22.4156 38.236 21.9563 37.6144L23.032 36.9429C23.322 36.7689 23.3945 36.3958 23.2374 36.0974C23.0682 35.799 22.7057 35.7244 22.4156 35.8861L21.3279 36.5699C20.7115 35.426 20.3248 34.1578 20.216 32.8149C20.216 32.7901 20.216 32.7528 20.216 32.7279H21.4729C21.8113 32.7279 22.0651 32.4544 22.0651 32.1186C22.0651 31.7705 21.7992 31.5094 21.4729 31.5094H20.1918C20.2402 30.3158 20.5181 29.1345 20.9895 28.0528L22.0893 28.6745C22.186 28.7242 22.2827 28.7491 22.3793 28.7491C22.5969 28.7491 22.7903 28.6372 22.899 28.4258C23.0561 28.1274 22.9474 27.7544 22.6573 27.5928L21.5333 26.9586C21.7751 26.5608 22.0409 26.1629 22.3431 25.8023C22.8386 25.1806 23.4066 24.6584 24.0109 24.1984L24.6635 25.305C24.7723 25.4915 24.9778 25.6034 25.1712 25.6034C25.2799 25.6034 25.3887 25.5785 25.4854 25.5163C25.7754 25.3423 25.848 24.9693 25.6908 24.6708L25.0261 23.5518C26.1864 22.8928 27.4674 22.5074 28.7606 22.4079V23.701C28.7606 24.0492 29.0265 24.3103 29.3528 24.3103C29.6912 24.3103 29.945 24.0367 29.945 23.701V22.383C31.0811 22.4328 32.2292 22.7063 33.3048 23.2037L32.7006 24.3351C32.5434 24.6335 32.6522 25.0066 32.9423 25.1682C33.039 25.2179 33.1356 25.2428 33.2323 25.2428C33.4499 25.2428 33.6432 25.1309 33.752 24.9195L34.3684 23.7632C34.7551 24.0119 35.1298 24.273 35.4803 24.5838C36.0846 25.0936 36.6043 25.6904 37.0514 26.3121L35.9758 26.9835C35.6857 27.1576 35.6132 27.5306 35.7703 27.829C35.8791 28.0155 36.0846 28.1274 36.2779 28.1274C36.3867 28.1274 36.4955 28.1025 36.5922 28.0404L37.6799 27.3565C38.3083 28.5502 38.6951 29.8681 38.7918 31.1985H37.5469C37.2085 31.1985 36.9547 31.4721 36.9547 31.8078C36.9547 32.1435 37.2206 32.4171 37.5469 32.4171H38.8159C38.7676 33.5858 38.4896 34.767 38.0183 35.8612L36.9306 35.2519C36.6405 35.0903 36.2779 35.2022 36.1208 35.5006C35.9637 35.799 36.0725 36.172 36.3625 36.3337L37.4744 36.9554C37.2206 37.3657 36.9427 37.7636 36.6405 38.1241Z" fill="white"/>
<path d="M32.3379 26.9464C32.0479 26.7847 31.6853 26.8966 31.5282 27.195L30.1021 29.8683C29.9691 29.831 29.8241 29.8186 29.6912 29.8186C28.6518 29.8186 27.8179 30.6889 27.8179 31.7458C27.8179 32.8151 28.6639 33.6854 29.6912 33.6854C30.7305 33.6854 31.5644 32.8151 31.5644 31.7458C31.5644 31.2733 31.3953 30.8257 31.1173 30.49L32.5796 27.7794C32.7368 27.4686 32.628 27.108 32.3379 26.9464ZM30.368 31.9199C30.3438 32.0442 30.2713 32.1561 30.1988 32.2431C30.0658 32.3799 29.8845 32.4669 29.7032 32.4669C29.3648 32.4669 29.099 32.2307 29.0264 31.9199C29.0144 31.8701 29.0023 31.808 29.0023 31.7582C29.0023 31.4474 29.1956 31.1863 29.4615 31.0868C29.534 31.0619 29.6186 31.0495 29.7032 31.0495C30.0779 31.0495 30.3921 31.3728 30.3921 31.7582C30.3921 31.8204 30.38 31.8826 30.368 31.9199Z" fill="white"/>
</svg>
