<svg width="67" height="70" viewBox="0 0 67 70" fill="none" xmlns="http://www.w3.org/2000/svg">
<g clip-path="url(#clip0_1_16)">
<path d="M2.78418 47.1187C4.89385 47.1332 7.01787 47.1187 9.12754 47.162C10.3044 47.1764 11.2516 48.071 11.4668 49.1964C13.9353 46.9889 16.1885 44.7237 19.2884 43.7859C19.3745 43.757 19.4463 43.7282 19.5324 43.6993C19.287 43.2893 19.1123 42.8405 19.0157 42.3719L18.212 38.3033C18.1593 37.9887 18.0347 37.6907 17.8479 37.4328C17.6611 37.175 17.4173 36.9642 17.1357 36.8172L13.5335 34.7973C12.6349 34.296 11.9589 33.4707 11.6419 32.488C11.3249 31.5052 11.3906 30.4382 11.8256 29.5022L13.5478 25.7365C13.6894 25.4495 13.7631 25.1335 13.7631 24.8131C13.7631 24.4928 13.6894 24.1767 13.5478 23.8898L11.8256 20.1241C11.3937 19.1876 11.3297 18.1217 11.6464 17.1398C11.9631 16.1579 12.6371 15.3325 13.5335 14.829L17.1357 12.8091C17.4173 12.6621 17.6611 12.4513 17.8479 12.1934C18.0347 11.9356 18.1593 11.6376 18.212 11.323L19.0157 7.25436C19.2112 6.2401 19.782 5.33811 20.613 4.7303C21.444 4.12248 22.4733 3.85408 23.4934 3.97922L27.5836 4.46977C27.8986 4.50942 28.2184 4.47963 28.5207 4.38245C28.8231 4.28528 29.1008 4.12306 29.3345 3.90708L32.3626 1.09363C33.1157 0.390971 34.1051 0.000488281 35.1325 0.000488281C36.1599 0.000488281 37.1493 0.390971 37.9023 1.09363L40.9305 3.90708C41.1611 4.12777 41.4384 4.29306 41.7417 4.39051C42.0449 4.48797 42.3662 4.51507 42.6814 4.46977L46.7715 3.97922C47.7916 3.85408 48.821 4.12248 49.6519 4.7303C50.4829 5.33811 51.0537 6.2401 51.2492 7.25436L52.0385 11.3375C52.0913 11.652 52.2159 11.95 52.4027 12.2079C52.5895 12.4658 52.8333 12.6765 53.1149 12.8235L56.7171 14.8434C57.615 15.3455 58.2912 16.1699 58.6105 17.1516C58.9298 18.1334 58.8687 19.2001 58.4393 20.1385L56.7171 23.9042C56.5755 24.1912 56.5018 24.5072 56.5018 24.8276C56.5018 25.1479 56.5755 25.464 56.7171 25.751L58.4393 29.5167C58.8687 30.455 58.9298 31.5218 58.6105 32.5035C58.2912 33.4852 57.615 34.3096 56.7171 34.8117L53.1149 36.8316C52.8359 36.982 52.5942 37.1937 52.4079 37.451C52.2215 37.7083 52.0953 38.0046 52.0385 38.3177L51.2349 42.3864C51.0394 43.4006 50.4686 44.3026 49.6376 44.9104C48.8066 45.5182 47.7773 45.7866 46.7572 45.6615L42.667 45.171C42.352 45.1313 42.0322 45.1611 41.7299 45.2583C41.4275 45.3554 41.1498 45.5177 40.9161 45.7336L37.888 48.5471C37.1349 49.2498 36.1455 49.6402 35.1181 49.6402C34.0907 49.6402 33.1013 49.2498 32.3483 48.5471L31.7886 48.0277C28.7748 49.6292 26.8947 50.7257 24.6272 52.1974C25.6748 52.2984 28.1433 52.4859 31.0853 52.7889C33.2237 53.0053 35.563 53.2073 37.7588 53.3516C38.0171 53.3372 39.0504 53.0775 39.2514 52.962L51.4788 45.3152C53.488 44.06 55.6121 43.8003 57.1333 44.2043C58.4967 44.5506 59.6161 45.5028 59.6305 46.9456C62.0989 45.9789 65.1702 46.1809 66.4762 47.9411C66.8533 48.4352 67.0371 49.0512 66.9928 49.6725C66.9211 50.668 66.2752 51.7212 64.8257 52.6879C63.7781 53.3805 62.3573 54.376 60.6925 55.5158C53.8468 60.2337 43.1837 67.592 39.2514 68.6741C38.0602 69.0059 16.1167 68.5586 10.9932 68.5586C10.795 68.9941 10.4751 69.3624 10.0726 69.6185C9.67 69.8746 9.20208 70.0077 8.7257 70.0014C6.61603 69.987 4.49201 70.0014 2.38234 69.9581C1.73832 69.9338 1.12915 69.6579 0.684281 69.1891C0.239415 68.7203 -0.0060732 68.0956 -1.24598e-05 67.4477C0.129151 61.4745 0.200909 55.4869 0.301369 49.5138C0.316436 48.8657 0.586045 48.2501 1.05127 47.8013C1.5165 47.3525 2.13952 47.1071 2.78418 47.1187ZM9.09884 49.0665L2.78418 49.0232C2.64173 49.0149 2.50173 49.0631 2.39434 49.1576C2.28696 49.252 2.2208 49.3851 2.21012 49.5282L1.90874 67.4477C1.90831 67.5965 1.96209 67.7403 2.05993 67.8519C2.15776 67.9636 2.29287 68.0353 2.43974 68.0537L8.76876 68.0969C8.9112 68.1053 9.05121 68.057 9.15859 67.9626C9.26598 67.8681 9.33214 67.735 9.34282 67.592L9.6442 49.6725C9.62985 49.3695 9.40022 49.0665 9.09884 49.0665ZM21.2115 42.8336C23.1777 41.5784 24.5124 40.3232 26.9952 39.1401C17.638 33.7585 15.8584 20.8743 23.5221 13.1698C25.3908 11.2896 27.6842 9.89178 30.2066 9.09562C32.729 8.29945 35.4056 8.12857 38.0079 8.59756C40.6103 9.06654 43.0611 10.1615 45.1514 11.7889C47.2416 13.4164 48.9092 15.528 50.0119 17.9437C51.1146 20.3594 51.6196 23.0075 51.4838 25.6618C51.348 28.3162 50.5755 30.8982 49.2322 33.1875C47.8889 35.4767 46.0146 37.4053 43.7694 38.8086C41.5241 40.212 38.9745 41.0484 36.338 41.2466C36.8403 43.3675 35.6778 45.6327 33.5251 47.061C33.9987 47.4939 34.4723 47.7247 35.1038 47.7247C35.6532 47.7226 36.1814 47.5113 36.582 47.1332L39.6101 44.3197C40.0381 43.911 40.5512 43.6031 41.1122 43.4184C41.6732 43.2338 42.268 43.1769 42.8536 43.252L46.9438 43.7426C47.4887 43.8095 48.0386 43.6668 48.4832 43.3429C48.9277 43.0191 49.234 42.5382 49.3405 41.9968L50.1441 37.9281C50.2499 37.3422 50.4854 36.7877 50.8332 36.3057C51.181 35.8237 51.6322 35.4265 52.1534 35.1435L55.7556 33.1236C56.2357 32.8525 56.5959 32.4086 56.7637 31.8812C56.9314 31.3539 56.8943 30.7823 56.6597 30.2813L54.9375 26.5156C54.6824 25.9796 54.55 25.3929 54.55 24.7987C54.55 24.2045 54.6824 23.6178 54.9375 23.0818L56.6597 19.3161C56.8898 18.8145 56.9246 18.2444 56.7572 17.7183C56.5899 17.1921 56.2325 16.7481 55.7556 16.4738L52.1534 14.4539C51.6322 14.1709 51.181 13.7737 50.8332 13.2917C50.4854 12.8097 50.2499 12.2552 50.1441 11.6693L49.3405 7.60063C49.2365 7.0579 48.9309 6.57533 48.4857 6.25105C48.0405 5.92676 47.4891 5.7851 46.9438 5.85485L42.8536 6.3454C42.268 6.42164 41.6728 6.36533 41.1117 6.18061C40.5505 5.99588 40.0375 5.68741 39.6101 5.27773L36.582 2.46428C36.1776 2.0886 35.6472 1.87995 35.0966 1.87995C34.546 1.87995 34.0156 2.0886 33.6112 2.46428L30.583 5.27773C30.1551 5.68646 29.642 5.99432 29.081 6.17899C28.52 6.36365 27.9252 6.4205 27.3396 6.3454L23.2494 5.85485C22.704 5.7851 22.1527 5.92676 21.7075 6.25105C21.2623 6.57533 20.9567 7.0579 20.8527 7.60063L20.049 11.6693C19.9405 12.2542 19.704 12.8075 19.3565 13.2891C19.0089 13.7708 18.5592 14.1686 18.0398 14.4539L14.4376 16.4738C13.9584 16.746 13.5982 17.189 13.4281 17.7153C13.2581 18.2415 13.2905 18.8127 13.5191 19.3161L15.2413 23.0818C15.4964 23.6178 15.6288 24.2045 15.6288 24.7987C15.6288 25.3929 15.4964 25.9796 15.2413 26.5156L13.5191 30.2813C13.2881 30.7843 13.2544 31.3564 13.4247 31.8833C13.595 32.4102 13.9567 32.8531 14.4376 33.1236L18.0398 35.1435C18.561 35.4265 19.0122 35.8237 19.36 36.3057C19.7078 36.7877 19.9433 37.3422 20.049 37.9281L20.8527 41.9968C20.9255 42.2938 21.0467 42.5765 21.2115 42.8336ZM29.4493 38.2456C31.9034 37.6251 34.0561 38.0003 35.3764 39.3998C37.5883 39.3669 39.7632 38.8244 41.7337 37.8139C43.7043 36.8033 45.4179 35.3518 46.7428 33.5709H42.911C39.8685 33.5709 40.0981 35.057 36.5389 35.057H29.9946C27.8276 35.057 26.3924 32.8351 27.397 31.046C26.4785 30.1659 26.3781 28.7087 27.0526 27.6699C26.7194 27.2125 26.5375 26.6615 26.5323 26.0947C26.5272 25.5278 26.6991 24.9736 27.0239 24.5102C25.8183 22.8365 26.9234 20.2251 29.2197 20.2251H33.6256C33.4964 19.1574 33.2094 18.2052 33.2811 17.0653C33.5538 12.8668 38.2611 11.8857 39.3375 16.6614C39.481 17.3106 39.5958 17.8589 39.6962 18.3494C40.3421 21.4514 40.4856 22.1584 44.5471 22.1584H49.3548C48.8955 19.6811 47.8051 17.3659 46.1899 15.4388C44.5748 13.5117 42.4901 12.0386 40.1395 11.1634C37.789 10.2882 35.2528 10.0407 32.7787 10.4452C30.3046 10.8496 27.9771 11.8922 26.0234 13.4711C24.0698 15.0499 22.5568 17.1112 21.6323 19.4534C20.7077 21.7957 20.4031 24.339 20.7482 26.835C21.0934 29.3309 22.0765 31.6943 23.6015 33.6942C25.1265 35.6941 27.1414 37.2623 29.4493 38.2456ZM41.9351 53.5392C43.1406 53.5536 45.4943 53.568 46.0683 53.2939L57.2481 48.0421C57.65 47.566 57.8078 47.1764 57.7791 46.8735C57.7217 46.4262 57.162 46.1521 56.7028 46.0222C55.6121 45.7336 54.0621 45.9501 52.5121 46.9167L41.9351 53.5392ZM12.4858 50.8411C12.1414 51.1441 11.8113 51.4327 11.4955 51.7068L11.2372 66.6397C13.1316 66.6397 16.4468 66.683 20.1639 66.7407C27.6984 66.8417 36.8547 66.9571 38.8639 66.7984C42.5378 65.7308 52.957 58.5457 59.6592 53.9143C61.324 52.7745 62.7448 51.7789 63.8068 51.072C65.1415 50.1774 65.7155 49.1964 64.3091 48.5615C63.2758 48.0854 61.6253 48.071 59.9032 48.8789L46.8576 55.0108C44.6762 56.0352 33.5969 54.9531 30.9131 54.679C27.7271 54.3471 24.9286 53.8999 23.4503 53.467C23.2389 53.5164 23.0171 53.4918 22.8214 53.3974C22.6257 53.303 22.4679 53.1443 22.374 52.9476C21.9004 51.9377 23.4073 50.7257 25.273 49.557C26.8804 48.5471 29.0474 47.3496 31.4011 46.0943L31.4872 46.0511C33.4533 45.1565 34.4436 43.7715 34.5728 42.5162C34.6283 42.0931 34.5619 41.6628 34.3812 41.2766C34.2006 40.8904 33.9134 40.5645 33.5538 40.3376C32.7214 39.8182 31.4441 39.6595 29.7363 40.1356C29.6857 40.1567 29.6327 40.1712 29.5784 40.1789C28.9605 40.3598 28.3601 40.5965 27.7845 40.8859C26.2632 41.6217 25.0003 42.5162 23.8522 43.3386C22.4744 44.3197 21.2546 45.1998 19.8481 45.6182C17.0209 46.455 14.8681 48.7202 12.4858 50.8411ZM49.5988 24.0773H44.5614C38.95 24.0773 38.7491 23.0818 37.8593 18.7534C37.7588 18.2484 37.6296 17.6713 37.5005 17.0942C36.8834 14.3962 35.3047 15.2907 35.1755 17.1952C35.1038 18.3639 35.6061 19.6047 35.5487 21.1917C35.5489 21.3168 35.5245 21.4408 35.4769 21.5564C35.4294 21.672 35.3596 21.777 35.2717 21.8655C35.1837 21.954 35.0792 22.0241 34.9642 22.0719C34.8492 22.1197 34.7259 22.1442 34.6015 22.144H29.2197C28.3729 22.144 28.1289 23.2838 28.8752 23.6589C29.035 23.7357 29.1699 23.8564 29.2643 24.0071C29.3587 24.1577 29.4089 24.3321 29.4089 24.5102C29.4089 24.6882 29.3587 24.8626 29.2643 25.0133C29.1699 25.1639 29.035 25.2846 28.8752 25.3614C28.7427 25.4272 28.631 25.5289 28.553 25.6551C28.475 25.7813 28.4336 25.927 28.4336 26.0756C28.4336 26.2242 28.475 26.3698 28.553 26.4961C28.631 26.6223 28.7427 26.724 28.8752 26.7898C29.0352 26.8682 29.1701 26.9903 29.2644 27.1421C29.3588 27.2939 29.4088 27.4693 29.4088 27.6482C29.4088 27.8272 29.3588 28.0026 29.2644 28.1544C29.1701 28.3062 29.0352 28.4282 28.8752 28.5067C28.416 28.7375 28.2725 29.7331 29.0905 29.8485C29.2834 29.8775 29.4627 29.9654 29.6043 30.1002C29.7458 30.2351 29.8427 30.4104 29.8819 30.6025C29.921 30.7946 29.9005 30.9941 29.8232 31.1741C29.7458 31.3541 29.6153 31.5058 29.4493 31.6087C28.4734 32.2002 29.1048 33.1525 29.9803 33.1525H36.5246C39.524 33.1525 39.3088 31.6664 42.8966 31.6664H47.934C49.1664 29.3365 49.742 26.7123 49.5988 24.0773Z" fill="white"/>
</g>
<defs>
<clipPath id="clip0_1_16">
<rect width="67" height="70" fill="white"/>
</clipPath>
</defs>
</svg>
