<svg width="61" height="61" viewBox="0 0 61 61" fill="none" xmlns="http://www.w3.org/2000/svg">
<path fill-rule="evenodd" clip-rule="evenodd" d="M9.72996 18.514C6.91274 18.514 4.61677 16.3317 4.61677 13.6275C4.61677 10.9352 6.91274 8.74107 9.72996 8.74107C12.5596 8.74107 14.8432 10.9352 14.8432 13.6275C14.8432 16.3198 12.5596 18.514 9.72996 18.514ZM56.0466 33.5173H54.7807C54.5077 34.7033 53.6141 35.664 52.4475 36.1147C55.4757 40.5268 60.713 47.1448 60.713 51.0232C60.713 56.3603 56.3693 60.6894 51.0203 60.6894C45.6837 60.6894 41.3399 56.3603 41.3399 51.0232C41.3399 47.133 46.5772 40.5268 49.6054 36.1147C48.4512 35.664 47.5577 34.7152 47.2722 33.5173H44.4426C43.5242 37.2889 37.8649 37.2889 36.9341 33.5173H34.1045C33.1985 37.2889 27.5269 37.2889 26.6085 33.5173H23.7664C23.4934 34.7033 22.6122 35.664 21.4332 36.1147C24.4614 40.5268 29.7111 47.1448 29.7111 51.0232C29.7111 56.3603 25.355 60.6894 20.0184 60.6894C14.6818 60.6894 10.3257 56.3603 10.3257 51.0232C10.3257 47.1448 15.5754 40.5149 18.6036 36.1147C17.437 35.664 16.5558 34.7152 16.258 33.5173H13.4283C12.5224 37.2889 6.85069 37.2889 5.9323 33.5173C5.20007 33.5173 3.81007 33.7427 3.81007 32.6871C3.81007 31.6315 5.20007 31.8569 5.9323 31.8569C6.20533 30.6708 7.0989 29.6983 8.2655 29.2595C5.2373 24.8474 0 18.2293 0 14.3391C0 9.01386 4.34373 4.68483 9.68032 4.68483C15.0293 4.68483 19.3731 9.01386 19.3731 14.3391C19.3731 18.2293 14.1357 24.8474 11.1075 29.2595C12.2617 29.6983 13.1429 30.659 13.4408 31.8569H16.2704C17.1888 28.0853 22.848 28.0853 23.7788 31.8569H26.6085C27.5145 28.0853 33.1861 28.0853 34.1045 31.8569H36.9714C37.8898 28.0853 43.549 28.0853 44.4798 31.8569H47.3095C48.2154 28.0853 53.8871 28.0853 54.8055 31.8569C55.5377 31.8569 56.9277 31.6315 56.9277 32.6871C56.9153 33.1496 56.5306 33.5173 56.0466 33.5173ZM48.9477 32.6752C48.9601 35.3675 53.1549 35.3557 53.1549 32.6871C53.1549 30.0422 48.9601 30.0185 48.9477 32.6752ZM38.6096 32.6515C38.6592 35.3438 42.8292 35.3082 42.8292 32.6752C42.8292 30.0422 38.6344 30.0185 38.6096 32.6515ZM9.72996 30.6708C6.96238 30.6708 6.96238 34.7033 9.72996 34.7033C12.5224 34.7033 12.5224 30.6708 9.72996 30.6708ZM20.068 30.6708C17.3005 30.6708 17.2881 34.6915 20.0805 34.7033C22.8232 34.7033 22.848 30.6708 20.068 30.6708ZM30.3813 30.6708C27.6137 30.6708 27.6137 34.7033 30.3813 34.7033C33.1737 34.7033 33.1737 30.6708 30.3813 30.6708ZM41.9977 24.7525C34.8492 24.7525 29.041 19.2019 29.041 12.3822C29.041 5.5625 34.8367 0 41.9977 0C49.1338 0 54.942 5.5625 54.942 12.3822C54.942 19.2019 49.1338 24.7525 41.9977 24.7525ZM41.1165 1.69603C35.631 2.09928 31.2252 6.3097 30.8157 11.552H33.4964C34.6258 11.552 34.6258 13.2006 33.4964 13.2006H30.8157C31.2252 18.4547 35.6434 22.6532 41.1165 23.0565V20.4947C41.1165 19.4272 42.8664 19.4272 42.8664 20.4947V23.0684C48.3644 22.6651 52.7577 18.4547 53.1797 13.2124H50.4866C49.3696 13.2124 49.3696 11.5638 50.4866 11.5638H53.1797C52.7577 6.3097 48.352 2.11114 42.8664 1.70789V4.26972C42.8664 5.34901 41.1165 5.34901 41.1165 4.26972V1.69603ZM43.6483 15.8217C43.3505 15.8217 43.065 15.6675 42.9037 15.4066C42.581 14.8847 41.2034 12.8566 41.2034 12.3941V7.8634C41.2034 6.79597 42.9533 6.79597 42.9533 7.8634V12.1687L44.4054 14.5764C44.7405 15.1219 44.2937 15.8217 43.6483 15.8217ZM20.068 37.0754C17.3005 41.0961 12.1252 47.6193 12.1252 51.0113C12.1252 55.4234 15.6871 59.0052 20.068 59.0052C24.449 59.0052 28.0109 55.4234 28.0109 51.0113C28.0109 47.6193 22.8356 41.0842 20.068 37.0754ZM20.068 56.6213C17.2384 56.6213 14.9549 54.439 14.9549 51.7348C14.9549 49.0425 17.2384 46.8602 20.068 46.8602C22.8853 46.8602 25.1812 49.0425 25.1812 51.7348C25.1812 54.439 22.8853 56.6213 20.068 56.6213ZM20.068 48.5088C18.2064 48.5088 16.6799 49.9557 16.6799 51.7348C16.6799 53.5257 18.2064 54.9727 20.068 54.9727C21.9296 54.9727 23.4438 53.5257 23.4438 51.7348C23.4438 49.9557 21.9296 48.5088 20.068 48.5088ZM51.0451 37.0754C48.2775 41.0842 43.1022 47.6193 43.1022 51.0113C43.1022 55.4234 46.6641 59.0052 51.0451 59.0052C55.4384 59.0052 59.0003 55.4234 59.0003 51.0113C59.0003 47.6193 53.8127 41.0842 51.0451 37.0754ZM51.0451 56.6213C48.2279 56.6213 45.9443 54.439 45.9443 51.7348C45.9443 49.0425 48.2279 46.8602 51.0451 46.8602C53.8747 46.8602 56.1583 49.0425 56.1583 51.7348C56.1583 54.439 53.8747 56.6213 51.0451 56.6213ZM51.0451 48.5088C49.1835 48.5088 47.6694 49.9557 47.6694 51.7348C47.6694 53.5257 49.1835 54.9727 51.0451 54.9727C52.9191 54.9727 54.4332 53.5257 54.4332 51.7348C54.4208 49.9557 52.9191 48.5088 51.0451 48.5088ZM9.72996 6.34528C5.349 6.34528 1.78714 9.95082 1.78714 14.3629C1.78714 17.7549 6.9748 24.2781 9.72996 28.2988C12.4975 24.2781 17.6852 17.7549 17.6852 14.3629C17.6976 9.95082 14.1109 6.34528 9.72996 6.34528ZM9.72996 10.4015C7.86836 10.4015 6.35426 11.8485 6.35426 13.6275C6.35426 15.4184 7.86836 16.8654 9.72996 16.8654C11.604 16.8654 13.1181 15.4184 13.1181 13.6275C13.1181 11.8366 11.5916 10.4015 9.72996 10.4015Z" fill="white"/>
</svg>
