<svg width="64" height="64" viewBox="0 0 64 64" fill="none" xmlns="http://www.w3.org/2000/svg">
<g clip-path="url(#clip0_1_21)">
<path d="M0.9375 42.05C1.45 42.05 1.875 41.625 1.875 41.1125V20.9625C1.875 20.425 2.1375 19.9375 2.5875 19.65L20.5125 8.1125V13.975C17.9375 14.425 15.975 16.675 15.975 19.375C15.975 22.4 18.4375 24.85 21.45 24.85C24.4625 24.85 26.925 22.3875 26.925 19.375C26.925 16.675 24.9625 14.425 22.3875 13.975V8.1125L31.1125 13.725C31.55 14 32.125 13.875 32.4125 13.45C32.6875 13.0125 32.5625 12.4375 32.1375 12.15L22.3875 5.875V0.9375C22.3875 0.425 21.9625 0 21.45 0C20.9375 0 20.5125 0.425 20.5125 0.9375V5.875L1.575 18.0625C0.5875 18.7 0 19.7875 0 20.9625V41.1125C0 41.625 0.425 42.05 0.9375 42.05ZM25.0625 19.3625C25.0625 21.35 23.45 22.9625 21.4625 22.9625C19.475 22.9625 17.8625 21.35 17.8625 19.3625C17.8625 17.375 19.475 15.7625 21.4625 15.7625C23.45 15.7625 25.0625 17.375 25.0625 19.3625Z" fill="white"/>
<path d="M41.975 44.5376C41.4625 44.5376 41.0375 44.9626 41.0375 45.4751V60.5626C41.0375 61.4251 40.3375 62.1251 39.475 62.1251H29.35C29.4875 61.7751 29.575 61.3876 29.575 60.9876C29.575 60.3626 29.3875 59.7751 29.05 59.3001C29.2125 59.1876 29.35 59.0626 29.4875 58.9251C30.0625 58.3501 30.3625 57.5876 30.35 56.7876C30.3375 56.2001 30.15 55.6501 29.85 55.1876C30.025 55.0751 30.1875 54.9376 30.3375 54.7876C30.9125 54.2126 31.2125 53.4501 31.2 52.6501C31.1875 52.0626 31 51.5001 30.6875 51.0376C31.475 50.5001 31.9875 49.5876 31.9875 48.5626C31.9875 46.9001 30.6375 45.5501 28.975 45.5501H21.1625V39.8501C21.1625 37.6126 19.3375 35.7876 17.1 35.7876H15.3C14.4375 35.7876 13.7375 36.4876 13.7375 37.3501V44.0001C13.7375 44.3251 13.6875 44.6626 13.575 44.9751L13.55 45.0501C13.1375 46.3001 11.9625 47.1376 10.65 47.1376H10.0875V46.4751C10.0875 45.2751 9.1 44.2876 7.9 44.2876H1.5625C0.7 44.3001 0 45.0001 0 45.8626V60.5626C0 62.4626 1.5375 64.0001 3.4375 64.0001H39.475C41.375 64.0001 42.9125 62.4626 42.9125 60.5626V45.4751C42.9125 44.9626 42.5 44.5376 41.975 44.5376ZM8.2125 62.1251H3.4375C2.575 62.1251 1.875 61.4251 1.875 60.5626V46.1751H7.9C8.075 46.1751 8.2125 46.3126 8.2125 46.4876V62.1251ZM23.6625 62.1251H10.0875V49.0251H10.65C12.775 49.0251 14.6625 47.6751 15.3375 45.6501L15.3625 45.5751C15.5375 45.0751 15.6125 44.5376 15.6125 44.0126V37.6626H17.1C18.3 37.6626 19.2875 38.6501 19.2875 39.8501V45.8626C19.2875 46.7251 19.9875 47.4251 20.85 47.4251H28.975C29.6 47.4251 30.1125 47.9376 30.1125 48.5626C30.1125 49.1876 29.6 49.7001 28.975 49.7001H28.175H22.6875C22.175 49.7001 21.75 50.1251 21.75 50.6376C21.75 51.1501 22.175 51.5751 22.6875 51.5751H28.175C28.7875 51.5751 29.3 52.0751 29.3125 52.6876C29.3125 52.9751 29.2 53.2626 28.9875 53.4751C28.7625 53.7126 28.4375 53.8376 28.125 53.8376H27.3375H22.6875C22.175 53.8376 21.75 54.2626 21.75 54.7751C21.75 55.2876 22.175 55.7126 22.6875 55.7126H27.3375C27.95 55.7126 28.4625 56.2126 28.475 56.8251C28.475 57.1126 28.3625 57.4001 28.15 57.6126C27.925 57.8501 27.6 57.9751 27.2875 57.9751H26.5875H22.7C22.1875 57.9751 21.7625 58.4001 21.7625 58.9126C21.7625 59.4251 22.1875 59.8501 22.7 59.8501H26.5625C27.1875 59.8501 27.7 60.3626 27.7 60.9876C27.7 61.6126 27.1875 62.1251 26.5625 62.1251H23.6625Z" fill="white"/>
<path d="M57.65 27.825C58.5125 27.825 59.2125 27.125 59.2125 26.2625V25.075C59.2125 24.4 58.7875 23.8125 58.15 23.5875L50.4625 21.0125V17.675C50.4625 15.925 49.1125 14.5 47.3875 14.4375C46.5125 14.4 45.6875 14.725 45.0625 15.325C44.4375 15.925 44.0875 16.75 44.0875 17.625V21.0125L36.4 23.5875C35.7625 23.8 35.3375 24.4 35.3375 25.075V26.2625C35.3375 27.125 36.0375 27.825 36.9 27.825H44.0875V30.4125L41.875 33.3125C41.525 33.7625 41.4875 34.375 41.7875 34.8625C42.0875 35.35 42.625 35.6125 43.2 35.525L44.9 35.2625C45.2 35.7375 45.575 36.1375 46.0125 36.4875L46.35 36.7625C46.625 36.975 46.95 37.0875 47.2875 37.0875C47.625 37.0875 47.95 36.975 48.225 36.7625L48.5625 36.4875C49 36.1375 49.375 35.725 49.675 35.2625L51.375 35.525C51.9375 35.6125 52.4875 35.35 52.7875 34.8625C53.0875 34.375 53.0375 33.7625 52.7 33.3125L50.4875 30.4V27.8125L57.65 27.825ZM48.875 31.425L50.4625 33.5L49.625 33.375C49.05 33.2875 48.475 33.575 48.2 34.0875C48 34.4625 47.725 34.775 47.4 35.0375L47.2875 35.125L47.175 35.0375C46.85 34.775 46.575 34.4625 46.375 34.0875C46.125 33.6375 45.65 33.3625 45.15 33.3625C45.0875 33.3625 45.0125 33.3625 44.95 33.375L44.1125 33.5L45.7 31.425C45.8875 31.175 46 30.8625 46 30.55V27.375C46 26.5875 45.35 25.9375 44.5625 25.9375H37.25V25.2875L45.0125 22.6875C45.6 22.4875 46 21.9375 46 21.325V17.625C46 17.2625 46.1375 16.925 46.4 16.675C46.6625 16.425 47 16.3 47.3625 16.3125C48.0625 16.3375 48.625 16.95 48.625 17.675V21.325C48.625 21.95 49.025 22.4875 49.6125 22.6875L57.375 25.2875V25.9375H50.0625C49.275 25.9375 48.625 26.5875 48.625 27.375V30.55C48.5875 30.875 48.6875 31.175 48.875 31.425Z" fill="white"/>
<path d="M58.5 13.375C58.1125 13.025 57.525 13.0625 57.175 13.4375C56.825 13.825 56.8625 14.4125 57.2375 14.7625C60.3375 17.575 62.125 21.5875 62.125 25.775C62.125 33.9625 55.4626 40.625 47.2751 40.625C39.0876 40.625 32.425 33.9625 32.425 25.775C32.425 17.5875 39.0876 10.925 47.2751 10.925C49.5876 10.925 51.8 11.4375 53.8625 12.4625C54.325 12.6875 54.8875 12.5 55.1125 12.0375C55.3375 11.575 55.15 11.0125 54.6875 10.775C52.375 9.62505 49.8751 9.05005 47.2751 9.05005C38.0501 9.05005 30.55 16.55 30.55 25.775C30.55 35 38.0501 42.5 47.2751 42.5C56.5001 42.5 64 35 64 25.775C64 21.0625 62 16.55 58.5 13.375Z" fill="white"/>
</g>
<defs>
<clipPath id="clip0_1_21">
<rect width="64" height="64" fill="white"/>
</clipPath>
</defs>
</svg>
