<svg xmlns="http://www.w3.org/2000/svg" id="Layer_1" viewBox="0 0 100 100"><path d="m97.5 52.5v20c-.0045471 4.1402512-3.3597488 7.4954529-7.5 7.5v5c0 1.3807068-1.1192856 2.5-2.5 2.5-1.3807068 0-2.5-1.1192932-2.5-2.5v-5h-70v5c0 1.3807068-1.1192865 2.5-2.5 2.5s-2.5-1.1192932-2.5-2.5v-5c-4.1402507-.0045471-7.4954534-3.3597488-7.5-7.5v-20c.0045466-4.140255 3.3597493-7.4954529 7.5-7.5h80c4.1402512.0045471 7.4954529 3.359745 7.5 7.5zm-65-25c0-1.3807125 1.1192894-2.5 2.5-2.5h30c1.3807144 0 2.5 1.1192875 2.5 2.5v12.5h22.5v-20c-.0045471-4.1402512-3.3597488-7.4954529-7.5-7.5h-65c-4.1402502.0045471-7.4954529 3.3597488-7.5 7.5v20h22.5zm30 12.5v-10h-25v10z" fill="#ffffff"></path></svg>