<svg xmlns="http://www.w3.org/2000/svg" id="Layer_1" data-name="Layer 1" viewBox="0 0 128 128"><title></title><path d="M113.00018,49.99884a4.96708,4.96708,0,0,0-3.53613,1.46527,2.00011,2.00011,0,1,0,2.83008,2.82709.9986.9986,0,0,1,1.41211,0,2.00009,2.00009,0,1,0,2.83-2.82709A4.96694,4.96694,0,0,0,113.00018,49.99884Z" fill="#ffffff"></path><path d="M106.301,92.80157a5.375,5.375,0,0,0-5.26758-.21387l-25.5863,13.14111a6.13761,6.13761,0,0,0-3.01794-3.24146L53.58563,93.5506a5.622,5.622,0,0,0-3.6748-.41406L32.48834,97.07843a3.98639,3.98639,0,0,0-3.48749-2.08063H23.00092a4.00422,4.00422,0,0,0-4,3.99994v17.99957a4.0042,4.0042,0,0,0,4,3.99988h5.99994a3.99531,3.99531,0,0,0,3.73419-2.602H36.6922a10.15109,10.15109,0,0,1,2.97168.44336l23.49194,8.867a2.04719,2.04719,0,0,0,.2334.07227A7.70836,7.70836,0,0,0,69.48,126.72021l37.08856-24.16937q.0498-.03223.09668-.06738a5.92326,5.92326,0,0,0-.36426-9.68188Zm-1.97559,6.4364-37.029,24.13074a3.7568,3.7568,0,0,1-2.85449.54688L41.01929,115.075c-.03613-.01367-.07324-.02637-.11035-.03809a14.12911,14.12911,0,0,0-4.21674-.6416H33.00079V101.06348l17.79187-4.0257a1.66063,1.66063,0,0,1,1.0791.127l18.84357,8.93683a2.27167,2.27167,0,0,1,1.12988,1.39642,3.134,3.134,0,0,1-.20117,2.42285,1.67772,1.67772,0,0,1-2.13861.95258l-17.3446-7.5213A2.00011,2.00011,0,1,0,50.569,107.022l17.3446,7.5213a5.4834,5.4834,0,0,0,2.18549.45947,5.79635,5.79635,0,0,0,5.06348-3.17865,6.93138,6.93138,0,0,0,.65979-1.79108l27.03918-13.88678a1.35354,1.35354,0,0,1,1.32715.05176,1.81558,1.81558,0,0,1,.80957,1.48578A1.86016,1.86016,0,0,1,104.32544,99.238Z" fill="#ffffff"></path><path d="M28.14734,59.75446A2.00044,2.00044,0,0,0,30.00085,61.003h7.99994V87.998a2.00007,2.00007,0,0,0,1.99994,1.99994H88.00037a2.00009,2.00009,0,0,0,2-1.99994V61.003h7.99994a1.99966,1.99966,0,0,0,1.39258-3.435L65.39313,24.56439a1.99944,1.99944,0,0,0-2.78516,0L28.60828,57.568A1.99953,1.99953,0,0,0,28.14734,59.75446Zm30.85327,8.244h9.99994V85.998H59.00061Z" fill="#ffffff"></path><path d="M127.48932,40.66461a19.08081,19.08081,0,0,0-28.97827,0,1.99961,1.99961,0,1,0,2.97845,2.66882,15.08633,15.08633,0,0,1,23.0213,0,1.99964,1.99964,0,1,0,2.97852-2.66882Z" fill="#ffffff"></path><path d="M103.80786,45.80658a1.99976,1.99976,0,1,0,2.82813,2.82806,9.01144,9.01144,0,0,1,12.72839,0,1.99976,1.99976,0,1,0,2.82813-2.82806A13.01529,13.01529,0,0,0,103.80786,45.80658Z" fill="#ffffff"></path><path d="M89.00037,31.99927A15.99963,15.99963,0,1,0,73.00049,15.99963,16.01811,16.01811,0,0,0,89.00037,31.99927ZM83.53558,14.62366,88.809,7.2005a2.00027,2.00027,0,0,1,3.26172,2.31635L89.46735,13.181l-.12122.60089h3.48816a1.9995,1.9995,0,0,1,1.64063,3.14343l-5.47748,7.8587a1.99982,1.99982,0,0,1-3.28125-2.287l2.63428-3.77985.18872-.93536h-3.3728a2.00008,2.00008,0,0,1-1.6308-3.15814Z" fill="#ffffff"></path><path d="M39.00079,31.99927A15.99963,15.99963,0,1,0,23.00092,15.99963,16.01815,16.01815,0,0,0,39.00079,31.99927ZM41.198,16.86285a5.30441,5.30441,0,0,1-.59766-2.53363A5.30637,5.30637,0,0,1,41.198,11.798a1.40727,1.40727,0,0,0,.20313-.79828,2,2,0,1,1,4,0,5.3128,5.3128,0,0,1-.59766,2.53217,1.676,1.676,0,0,0,0,1.59955,5.66714,5.66714,0,0,1,0,5.06628,1.41653,1.41653,0,0,0-.20312.80176,2,2,0,0,1-4,0,5.304,5.304,0,0,1,.59766-2.53314,1.68388,1.68388,0,0,0,0-1.60352Zm-7.99994,0a5.30441,5.30441,0,0,1-.59766-2.53363,5.30637,5.30637,0,0,1,.59766-2.53119,1.40727,1.40727,0,0,0,.20313-.79828,2,2,0,1,1,4,0,5.3128,5.3128,0,0,1-.59766,2.53217,1.676,1.676,0,0,0,0,1.59955,5.66714,5.66714,0,0,1,0,5.06628,1.41653,1.41653,0,0,0-.20312.80176,2,2,0,0,1-4,0,5.304,5.304,0,0,1,.59766-2.53314,1.68388,1.68388,0,0,0,0-1.60352Z" fill="#ffffff"></path><path d="M25.9071,37.51917a2.00018,2.00018,0,0,0-1.99115-1.811h-.02832A13.51969,13.51969,0,0,1,14.373,31.98364a1.99984,1.99984,0,0,0-2.74414,0,13.54521,13.54521,0,0,1-9.33484,3.726c-.07129.00049-.14648-.001-.208-.00146a2.00024,2.00024,0,0,0-1.99121,1.811C-.16,40.20367-.786,53.96021,11.93945,61.1778a2.00124,2.00124,0,0,0,.98633.26025h.15039a2.00121,2.00121,0,0,0,.98632-.26025C26.788,53.96021,26.162,40.20367,25.9071,37.51917Z" fill="#ffffff"></path></svg>