<svg xmlns="http://www.w3.org/2000/svg" clip-rule="evenodd" fill-rule="evenodd" stroke-linejoin="round" stroke-miterlimit="2" viewBox="0 0 510 510"><g id="Artboard11"><path d="m407.789 347.179v-36.828c0-3.44-1.366-6.74-3.799-9.172-2.432-2.433-5.732-3.799-9.172-3.799h-20.264c-3.863 0-7 3.136-7 7v109.711c0 3.866 3.134 7 7 7h14.092c-5.513 5.428-10.141 11.754-13.645 18.74-7.973-15.9-21.763-28.378-38.578-34.642 9.453-7.359 15.534-18.848 15.534-31.762 0-13.82-6.972-26.012-17.59-33.252v-90.376c0-3.866-3.134-7-7-7h-144.734c-3.866 0-7 3.134-7 7v9.001c-3.75-5.126-8.914-9.155-14.915-11.51-.791-2.458-1.839-4.801-3.113-6.997v-112.958c0-9.77 7.92-17.69 17.689-17.69h159.412c9.769 0 17.689 7.92 17.689 17.69v122.464h42.163c15.668 0 28.369 12.702 28.369 28.37v58.068c-5.876 2.425-11.05 6.202-15.138 10.942zm-73.422-149.22c0-16.22-13.149-29.368-29.368-29.368h-99.998c-16.219 0-29.368 13.148-29.368 29.368v27.285c0 3.866 3.134 7 7 7h144.734c3.866 0 7-3.134 7-7zm-14 0v20.285h-130.734v-20.285c0-8.488 6.881-15.368 15.368-15.368h99.998c8.487 0 15.368 6.88 15.368 15.368zm61.187 113.421h12.235v95.711h-12.235zm-136.972 137.839h-24.586v-158.327c0-1.326.527-2.598 1.465-3.535.937-.938 2.209-1.465 3.535-1.465h18.004c1.326 0 2.598.527 3.536 1.465.937.937 1.464 2.209 1.464 3.535v149.893c-1.313 2.719-2.457 5.535-3.418 8.434zm17.418-28.015v-130.312c0-1.326.527-2.598 1.464-3.535.938-.938 2.21-1.465 3.536-1.465h18.004c2.761 0 5 2.239 5 5v48.686c-11.125 7.155-18.492 19.643-18.492 33.849 0 12.915 6.081 24.405 15.537 31.764-9.477 3.531-17.993 9.035-25.049 16.013zm42.004-87.252v-48.06c0-7.732-6.268-14-14-14h-70.008c-7.732 0-14 6.268-14 14v163.327h-16.363s0-157.178 0-187.42c0-2.761 2.238-5 5-5h120.734c2.762 0 5 2.239 5 5v72.338c-2.779-.607-5.666-.928-8.628-.928-2.646 0-5.232.256-7.735.743zm-27.489-258.529h12.304c1.326 0 2.598.526 3.536 1.464.937.938 1.464 2.21 1.464 3.536v15.222h-77.638v-15.222c0-1.326.527-2.598 1.464-3.536.938-.938 2.21-1.464 3.536-1.464h41.334v-14.642c0-3.863 3.137-7 7-7 3.864 0 7 3.137 7 7zm-157.516 277.967c3.578-1.42 6.851-3.445 9.693-5.948v59.649h-9.507v-51.414c0-.778-.063-1.543-.186-2.287zm.186 67.701h16.507c3.866 0 7-3.134 7-7v-81.381c9.061-4.578 15.921-12.886 18.559-22.9 5.774-2.381 10.743-6.321 14.382-11.295v150.704h-56.448zm-39.25-389.873c6.894-10.809 14.528-16.218 28.111-16.218 17.122 0 31.013 12.63 31.013 28.184 0 27.483-29.496 54.966-59.725 82.441-1.319 1.201-3.29 1.201-4.608 0-30.23-27.475-59.726-54.958-59.726-82.441 0-15.554 13.891-28.184 31.013-28.184 13.583 0 21.218 5.409 28.119 16.218.652 1.03 1.692 1.604 2.901 1.604 1.202 0 2.242-.574 2.902-1.604zm25.25 324.459v119.43c-.201 8.019 3.356 13.824 8.566 17.289.515.351.742.997.558 1.593-.183.596-.734 1.003-1.358 1.003-10.635.008-32.154.008-42.789.008-.627-.001-1.18-.409-1.364-1.009-.185-.599.043-1.248.561-1.601 5.214-3.459 8.771-9.264 8.569-17.283v-119.43c4.895-.233 9.513-1.527 13.629-3.659 4.115 2.132 8.734 3.426 13.628 3.659zm-48.023-33.137c-.195.005-.39.008-.586.008-12.084 0-21.894-9.811-21.894-21.894 0-.782.041-1.554.121-2.315-.04 0-.081 0-.121 0-10.863 0-19.682-8.819-19.682-19.682 0-10.862 8.819-19.682 19.682-19.682h.011c-.007-.233-.011-.467-.011-.702 0-12.084 9.81-21.894 21.894-21.894 3.164 0 6.173.673 8.89 1.883 4.993-13.311 14.809-22.37 26.091-22.37s21.097 9.059 26.09 22.37c2.718-1.21 5.726-1.883 8.891-1.883 12.084 0 21.894 9.81 21.894 21.894 0 .235-.004.469-.011.702h.011c10.863 0 19.682 8.82 19.682 19.682 0 10.863-8.819 19.682-19.682 19.682-.041 0-.081 0-.121 0 .08.761.121 1.533.121 2.315 0 12.083-9.81 21.894-21.894 21.894-.196 0-.391-.003-.586-.008v.008c0 10.578-8.589 19.167-19.167 19.167-6.205 0-11.724-2.954-15.228-7.531-3.504 4.577-9.024 7.531-15.228 7.531-10.578 0-19.167-8.589-19.167-19.167zm228.35 50.887c0-14.479 11.739-26.218 26.227-26.218 14.479 0 26.218 11.739 26.218 26.218 0 14.488-11.739 26.227-26.218 26.227-14.488 0-26.227-11.739-26.227-26.227zm82.957 98.074c0 31.332-113.469 31.332-113.469 0 0-31.333 25.406-56.739 56.739-56.739 31.332 0 56.73 25.406 56.73 56.739zm43.574-98.074c0-14.479 11.739-26.218 26.227-26.218 14.479 0 26.218 11.739 26.218 26.218 0 14.488-11.739 26.227-26.218 26.227-14.488 0-26.227-11.739-26.227-26.227zm82.957 98.074c0 31.332-113.469 31.332-113.469 0 0-31.333 25.406-56.739 56.739-56.739 31.332 0 56.73 25.406 56.73 56.739z" fill="#ffffff"></path></g></svg>