<svg xmlns="http://www.w3.org/2000/svg" viewBox="0 0 64 64"><g id="Layer_1"></g><g id="School_Bus"></g><g id="Pedicap"></g><g id="Electric_Motorbike"></g><g id="Electric_Car"></g><g id="Electric_Bycicle"></g><g id="Tuktuk"></g><g id="Cable_Car"></g><g id="Truck"></g><g id="Taxi"></g><g id="Train"></g><g id="Airplane"></g><g id="Cruise_Ship"><path d="m38 21h-27v-3c0-1.657 1.343-3 3-3h19.838c1.291 0 2.438.826 2.846 2.051z" fill="#ffffff"></path><path d="m21 13h-6v-7c0-.552.448-1 1-1h4c.552 0 1 .448 1 1z" fill="#ffffff"></path><path d="m31 13h-6v-7c0-.552.448-1 1-1h4c.552 0 1 .448 1 1z" fill="#ffffff"></path><path d="m61.823 35h-16.862c-.608 0-1.182.276-1.562.751l-2.799 3.498c-.379.475-.954.751-1.561.751l-37.427.001c-.89 0-1.612.722-1.612 1.613 0 1.787.397 3.547 1.167 5.161 1.533 3.213 4.163 8.725 5.292 11.091.332.696 1.032 1.134 1.803 1.134h46.12c.894 0 1.618-.724 1.618-1.618 0-.251-.058-.499-.171-.724l-.368-.736c-.306-.611-.483-1.263-.555-1.922h-26.906c-.552 0-1-.448-1-1s.448-1 1-1h27.048c.153-.605.396-1.191.75-1.728l7.843-11.897c.234-.356.359-.772.359-1.198 0-1.202-.975-2.177-2.177-2.177zm-52.823 13c-1.105 0-2-.895-2-2s.895-2 2-2 2 .895 2 2-.895 2-2 2zm8 0c-1.105 0-2-.895-2-2s.895-2 2-2 2 .895 2 2-.895 2-2 2zm8 0c-1.105 0-2-.895-2-2s.895-2 2-2 2 .895 2 2-.895 2-2 2zm8 0c-1.105 0-2-.895-2-2s.895-2 2-2 2 .895 2 2-.895 2-2 2z" fill="#ffffff"></path><path d="m50.255 28.949c-.084.022-.165.051-.255.051h-12c-.552 0-1-.448-1-1s.448-1 1-1h11.843l-.173-.82c-.39-1.86-2.02-3.18-3.92-3.18h-36.75c-2.21 0-4 1.79-4 4v11h34.04l2.8-3.5c.76-.95 1.9-1.5 3.12-1.5h6.15zm-36.255 5.051h-4c-.552 0-1-.448-1-1s.448-1 1-1h4c.552 0 1 .448 1 1s-.448 1-1 1zm0-5h-4c-.552 0-1-.448-1-1s.448-1 1-1h4c.552 0 1 .448 1 1s-.448 1-1 1zm9 5h-4c-.552 0-1-.448-1-1s.448-1 1-1h4c.552 0 1 .448 1 1s-.448 1-1 1zm0-5h-4c-.552 0-1-.448-1-1s.448-1 1-1h4c.552 0 1 .448 1 1s-.448 1-1 1zm9 5h-4c-.552 0-1-.448-1-1s.448-1 1-1h4c.552 0 1 .448 1 1s-.448 1-1 1zm0-5h-4c-.552 0-1-.448-1-1s.448-1 1-1h4c.552 0 1 .448 1 1s-.448 1-1 1zm7 5h-1c-.552 0-1-.448-1-1s.448-1 1-1h1c.552 0 1 .448 1 1s-.448 1-1 1z" fill="#ffffff"></path></g><g id="Hot_Air_Baloon" fill="#ffffff"></g></svg>