<svg xmlns="http://www.w3.org/2000/svg" clip-rule="evenodd" fill-rule="evenodd" height="512" viewBox="0 0 1707 1707" width="512"><g id="Layer_x0020_1"><path d="m784 262c126 0 190 154 100 243-89 90-243 26-243-100 0-79 64-143 143-143zm-741 1247c-52 4-59-76-6-80 603-47 984 248 1614-29 48-21 80 52 32 73-657 290-1047-11-1640 36zm1039-585 183-422c14-32 60-31 73 0l253 582c-28 24-58 47-88 68-53-16-101-38-149-65-55-30-107-63-162-92-32-16-64-32-97-45l-2-1h-1l-1-1h-1l-1-1h-1-1l-1-1h-1-1l-1-1h-1l-1-1h-1-1v-1h-2l-2-1c-35-14-71-26-108-37-69-19-136-23-200-13l114-235c14-30 57-29 72 0zm-856 53h-69c-27 0-51-11-69-28-17-18-28-42-28-69v-164c0-52 80-52 80 0v164c0 5 2 9 5 12l12 5h69v-399c0-53 80-53 80 0v218h69l12-5c3-3 5-7 5-12v-164c0-53 80-53 80 0v164c0 27-11 51-29 68-17 18-42 29-68 29h-69v352c24 3 49 7 73 12 139-145 347-282 577-216 272 78 352 196 554 252 42-29 86-62 130-101 40-35 93 25 53 60-526 463-888 179-1305 88-2 0-3 0-4 0-108-24-219-34-338-15-52 8-64-70-12-79 66-10 130-12 192-9zm439-748c37 37-20 94-57 56l-35-35c-37-37 19-94 56-56zm-90 136c53 0 53 80 0 80h-50c-52 0-52-80 0-80zm33 159c37-38 94 19 57 56l-36 36c-37 37-93-20-56-57zm136 89c0-53 80-53 80 0v50c0 53-80 53-80 0zm159-33c-37-37 19-94 57-56l35 35c37 37-20 94-57 56zm89-135c-52 0-52-80 0-80h50c53 0 53 80 0 80zm-32-160c-38 38-94-19-57-56l35-35c37-38 94 19 57 56zm-136-89c0 53-80 53-80 0v-50c0-52 80-52 80 0z" fill-rule="nonzero" fill="#ffffff"></path></g></svg>