<svg xmlns="http://www.w3.org/2000/svg" id="Layer_1" height="512" viewBox="0 0 512 512" width="512" data-name="Layer 1"><path d="m31.518 177.663v300.75a17.6 17.6 0 0 0 17.582 17.587h413.8a17.6 17.6 0 0 0 17.588-17.588v-244.365a17.6 17.6 0 0 0 -17.588-17.587h-324.428a8.285 8.285 0 0 1 -7.758-5.377 51.529 51.529 0 0 0 -47.989-33.42zm49.458 80.187a33.105 33.105 0 1 1 33.1-33.1 33.139 33.139 0 0 1 -33.1 33.1zm118.356 151.61v-103.6a19.593 19.593 0 0 1 29.389-16.967l89.721 51.8a19.591 19.591 0 0 1 0 33.933l-89.721 51.8a19.592 19.592 0 0 1 -29.388-16.968zm16.552-103.6a2.783 2.783 0 0 1 1.519-2.631 2.8 2.8 0 0 1 3.041 0l89.721 51.8a3.042 3.042 0 0 1 0 5.268l-89.719 51.8a3.041 3.041 0 0 1 -4.563-2.632v-103.6zm-134.907-64.56a16.552 16.552 0 1 1 16.55-16.551 16.572 16.572 0 0 1 -16.55 16.551zm-48.93-80.185h50.677a66.853 66.853 0 0 1 10.513.843l16.043-58.306-74.917 20.438-2.316 37.022zm95.8-62.523 73.137-19.955-18.176 93.585-48.69 12.638a68.6 68.6 0 0 0 -24.982-18.3l18.714-67.971zm90.953-24.815-18.236 93.831 78.918-20.492 12.509-93.306zm90.527-24.694-12.548 93.541 77.555-20.136 12.682-94.6zm95.028-25.924-12.714 94.835 73.22-19.013c6.8-16.326 5.734-47.2-6.434-66.6-7.015-11.174-16.354-16.685-27.88-16.368z" fill-rule="evenodd" fill="#ffffff"></path></svg>