<svg xmlns="http://www.w3.org/2000/svg" id="Layer_1" height="512" viewBox="0 0 512 512" width="512"><g><path d="m74.493 176.734h106.96c.618-1.753 1.336-3.469 2.167-5.13l29.568-59.136h-105.834c-23.837 0-43.087 19.285-43.087 43.087v10.953c0 5.647 4.578 10.226 10.226 10.226z" fill="#ffffff"></path><path d="m330.547 176.734h106.96c5.648 0 10.226-4.579 10.226-10.226v-10.953c0-23.838-19.29-43.087-43.087-43.087h-105.835l29.572 59.141c.83 1.658 1.547 3.373 2.164 5.125z" fill="#ffffff"></path><path d="m497 369.533h-60.188l22.594-22.594c5.858-5.857 5.858-15.355 0-21.213-5.857-5.857-15.355-5.857-21.213 0l-22.593 22.595v-44.121c0-8.284-6.716-15-15-15s-15 6.716-15 15v44.12l-22.593-22.593c-5.857-5.858-15.355-5.858-21.213 0-5.858 5.857-5.858 15.355 0 21.213l22.593 22.594h-31.253v63.2c0 24.813-20.187 45-45 45h-64.268c-24.813 0-45-20.187-45-45v-63.2h-31.253l22.593-22.594c5.858-5.857 5.858-15.355 0-21.213-5.857-5.857-15.355-5.857-21.213 0l-22.593 22.593v-44.12c0-8.284-6.716-15-15-15s-15 6.716-15 15v44.12l-22.594-22.594c-5.857-5.857-15.355-5.857-21.213 0s-5.858 15.355 0 21.213l22.594 22.594h-60.187c-8.284 0-15 6.716-15 15v112.467c0 8.284 6.716 15 15 15h482c8.284 0 15-6.716 15-15v-112.467c0-8.284-6.716-15-15-15z" fill="#ffffff">
  
</path><path d="m256 112.467c-5.682 0-10.875 3.21-13.416 8.292l-32.134 64.267c-1.042 2.083-1.584 4.379-1.584 6.708v241c0 8.284 6.716 15 15 15h64.268c8.284 0 15-6.716 15-15v-241c0-2.329-.542-4.625-1.584-6.708l-32.134-64.267c-2.541-5.082-7.734-8.292-13.416-8.292z" fill="#ffffff"></path><path d="m288.133 52.907v-7.235c0-19.009-10.561-36.096-27.562-44.592-2.879-1.439-6.265-1.439-9.144 0-17 8.497-27.562 25.583-27.562 44.592v7.235l32.135 32.133z" fill="#ffffff"></path><path d="m403.978 70.376c3.993-3.993 3.993-10.469 0-14.462l-7.745-7.745c-16.83-16.83-44.078-16.856-60.934 0l-34.298 34.298h90.887z" fill="#ffffff"></path><path d="m120.113 82.467h90.887l-34.298-34.298c-16.856-16.856-44.104-16.83-60.934 0l-7.745 7.745c-3.994 3.994-3.994 10.469 0 14.462z" fill="#ffffff"></path></g></svg>