<svg xmlns="http://www.w3.org/2000/svg" clip-rule="evenodd" fill-rule="evenodd" height="512" stroke-linejoin="round" stroke-miterlimit="2" viewBox="0 0 24 24" width="512"><g id="Icon"><path d="m22 6c.414 0 .75.336.75.75s-.336.75-.75.75h-13c-.414 0-.75-.336-.75-.75s.336-.75.75-.75z" fill="#ffffff"></path><path d="m16.235 6.897c-.081.406-.476.67-.882.588-.406-.081-.67-.476-.588-.882l.8-4c.07-.351.377-.603.735-.603h3c.414 0 .75.336.75.75s-.336.75-.75.75h-2.385z" fill="#ffffff"></path><path d="m14.228 19.432-.5 2c-.084.334-.384.568-.728.568h-10.5c-.344 0-.644-.234-.728-.568l-.5-2c-.056-.224-.005-.462.137-.644s.36-.288.591-.288h11.5c.231 0 .449.106.591.288s.193.42.137.644z" fill="#ffffff"></path><path d="m6.624 14.834c.23.344.136.81-.208 1.04s-.81.136-1.04-.208l-3-4.5c-.23-.344-.136-.81.208-1.04s.81-.136 1.04.208z" fill="#ffffff"></path><path d="m2.511 17.5c-.007-.082-.011-.166-.011-.25 0-1.518 1.232-2.75 2.75-2.75s2.75 1.232 2.75 2.75c0 .084-.004.168-.011.25z" fill="#ffffff"></path><path d="m7.511 17.5c-.007-.082-.011-.166-.011-.25 0-1.518 1.232-2.75 2.75-2.75s2.75 1.232 2.75 2.75c0 .084-.004.168-.011.25z" fill="#ffffff"></path><path d="m5.615 11.518c.504-.621 1.274-1.018 2.135-1.018 1.518 0 2.75 1.232 2.75 2.75 0 .087-.004.173-.012.257-.079-.004-.158-.007-.238-.007-.96 0-1.836.362-2.5.956-.117-.105-.241-.203-.371-.293z" fill="#ffffff"></path><path d="m21.573 8.5-1.234 11.93c-.092.892-.844 1.57-1.741 1.57h-4.017c.049-.103.088-.212.117-.326l.5-2c.13-.522.013-1.076-.319-1.501-.229-.293-.543-.503-.892-.604.008-.105.013-.212.013-.319 0-1.642-1.057-3.038-2.527-3.546.018-.149.027-.3.027-.454 0-1.405-.775-2.631-1.92-3.273l-.153-1.477z" fill="#ffffff"></path></g></svg>