<svg xmlns="http://www.w3.org/2000/svg" id="Layer_1" height="512" viewBox="0 0 500 500" width="512" data-name="Layer 1"><g id="Ticket"><g id="Group"><path id="Path" d="m479.17 270.83c5.21 0 10.42-5.21 10.42-10.42v-62.5c0-17.71-13.54-31.25-31.25-31.25h-83.34v291.67h83.33c17.71 0 31.25-13.54 31.25-31.25v-62.5a10.44 10.44 0 0 0 -10.42-10.42 41.67 41.67 0 0 1 0-83.33z" fill="#ffffff"></path><path id="Path-2" d="m471.88 135.42c5.21-2.08 8.33-8.33 6.25-13.54l-20.84-59.38c-5.21-16.67-24-25-39.58-19.79l-295.83 102.08h333.33a52.83 52.83 0 0 1 16.67-9.37z" data-name="Path" fill="#ffffff"></path><path id="Shape" d="m10.42 197.92v62.5c0 6.25 4.17 10.42 10.42 10.42a41.67 41.67 0 1 1 0 83.33c-6.25 0-10.42 4.17-10.42 10.42v62.5c0 17.71 13.54 31.25 31.25 31.25h312.5v-291.67h-312.5c-17.67 0-31.25 13.54-31.25 31.25zm125 52.08h62.5c6.25 0 10.42 4.17 10.42 10.42s-4.17 10.42-10.42 10.42h-62.5c-6.25 0-10.42-4.17-10.42-10.42s4.17-10.42 10.42-10.42zm0 52.08h135.41c6.25 0 10.42 4.17 10.42 10.42s-4.17 10.42-10.42 10.42h-135.41c-6.25 0-10.42-4.17-10.42-10.42s4.17-10.42 10.42-10.42zm0 52.08h135.41c6.25 0 10.42 4.17 10.42 10.42s-4.17 10.42-10.42 10.42h-135.41c-6.25 0-10.42-4.17-10.42-10.42s4.17-10.41 10.42-10.41z" fill="#ffffff"></path></g></g></svg>