<svg xmlns="http://www.w3.org/2000/svg" id="Layer_1" height="512" viewBox="0 0 66 66" width="512"><g><path d="m48.7 62.2c-1 0-1.8-.8-1.8-1.8v-5.4h-11v-8.1h11v-2.1h-9.5v-6.3h10.5c.2-.1.5-.2.8-.2h1.7v-1.3h.4v-1.7c-.3-.2-.4-.6-.4-1v-.1c0-.7.6-1.3 1.3-1.3h.1c-.1-.4-.5-.7-.9-.7h-3.5v-1.7h-.6v-4.5h.2c.2 0 .4-.2.4-.4v-.2c0-.2-.2-.4-.4-.4h-8.4c-.2 0-.4.2-.4.4v.2c0 .2.2.4.4.4h.2v4.4h-.6v1.7h-3.5c-.6 0-1 .4-1 1v27.6c0 .5.5 1 1 1h1.3l.4 2h1.4l.4-2h9.2l.4 2h1.2l.1-.4-.2-1.1zm-9.3-36.2h6.8v4.4h-6.8z" fill="#ffffff"></path><path d="m38.4 39.3h8.6v4.4h-8.6z" fill="#ffffff"></path><path d="m37.2 48.1h9.8v5.6h-9.8z" fill="#ffffff"></path><path d="m64.2 1.5s-3.5-.3-5.5 1.4c0 0-7.5 6-12.3 8.1 3.8.4 8.1 1 12 1.8z" fill="#ffffff"></path><path d="m23.5 10.4c-.2.5-.5 1-.8 1.4l2.3.1-.1 2.3-2.3-.1.1-2.3c-.5.7-1.2 1.3-2 1.7 2.1.6 6 2.5 6.7 3.6.1.1.6.9 1.3 2.3.4-.5.5-1 .5-1h1.2c17.7 2 31.7-2.6 31.7-2.6l.1-1.1c-10.3-2.6-27.2-3.6-27.2-3.6zm6.4 4.1-2.3-.1.1-2.3 2.3.1zm13.1-1.5 2.3.1-.1 2.3-2.3-.1zm-5.1-.3 2.3.1-.2 2.3-2.2-.1zm-2.9 2.1-2.3-.1.1-2.3 2.3.1z" fill="#ffffff"></path><path d="m8 16.9c.4-.4 2.4-2.6 6.3-3.5-1.2-.7-2.1-1.8-2.7-3.2-2 .3-3.7.7-5 1.2 1.3.2 4 .3 4 .3-.4 1.3-1 1.3-1 1.3-1.4.3-4.8-.2-5.7-.3-.9.5-1.3.9-1.3.9-2.2 1.7 1.3 2.5 1.3 2.5.8.3 2.4.6 4.1.8z" fill="#ffffff"></path><path d=""></path><path d="m25.6 16.9c-2.2-1.5-4.4-2.4-6.5-2.8-1.1.2-2.2.2-3.2-.1-2.5.3-4.9 1.5-6.8 3.2-2.2 1.3-5.4 10.8-5.3 19.3 0 1.1.9 2 2 2 1.1 0 2-.9 2-2-.1-5 .9-9 1.8-11.8l1.4 17.7c0 .1.1.2.1.3l-1.9 18.6c-.2 1.6 1 3.1 2.7 3.3s3.1-1 3.3-2.7c.7-6.4 1.9-18.4 1.9-19h1.1c0 .5 1.3 12.6 1.9 19 .2 1.6 1.6 2.8 3.3 2.7 1.6-.2 2.8-1.6 2.7-3.3l-1.9-18.6c.1-.1.1-.2.1-.3l1.3-17.5c1 2.8 1.8 6.8 1.8 11.6 0 1.1.9 2 2 2 1.1 0 2-.9 2-2 .1-8.7-3.4-18.8-5.8-19.6zm-5.5-.3-1 3.1v.1h-3l-1-3.2c1.7-.8 3.4-.8 5 0zm-5 15.7c.1-1.2-.4 4.3.9-11.6h3.3l.8 11.6-2.5 3.1z" fill="#ffffff"></path><circle cx="17.6" cy="7.9" r="5.4" fill="#ffffff"></circle><path d="m61.1 39.1h-2.7v-1.3h-.4v-3.4h.1c.2 0 .3-.1.3-.3v-.1c0-.2-.2-.3-.3-.3h-6.5c-.2 0-.3.1-.3.3v.1c0 .2.1.3.3.3h.2v3.4h-.4v1.3h-2.7c-.4 0-.8.4-.8.8v20.5c0 .4.4.8.8.8h1l.3 1.6h1.1l.3-1.6h7.1l.3 1.6h1.1l.3-1.6h1.1c.4 0 .8-.4.8-.8v-20.5c-.2-.4-.5-.8-1-.8zm-8.8-4.6h5.2v3.4h-5.2zm-1.7 9.2h8.7v5.4h-8.7zm9.6 13h-10.5v-6.3h10.5z" fill="#ffffff"></path><path d="m51.6 44.7h6.7v3.4h-6.7z" fill="#ffffff"></path><path d="m50.6 51.4h8.6v4.3h-8.6z" fill="#ffffff"></path></g></svg>